<svg xmlns="http://www.w3.org/2000/svg" viewBox="0.0 0.0 24.0 24.0" height="200px" width="200px"><path fill="none" stroke="black" stroke-width=".3" stroke-opacity="1.0"  d="M2.40000057220459 2.40000057220459 L4.559999942779541 2.40000057220459 L6.720000267028809 2.40000057220459 C7.499027729034424 2.9835729598999023 7.868569374084473 3.72873592376709 8.640000343322754 4.320000171661377 L11.880000114440918 4.320000171661377 L15.119999885559082 4.320000171661377 L18.360000610351562 4.320000171661377 L21.599998474121094 4.320000171661377 C22.018123626708984 4.493124961853027 22.38687515258789 4.861876010894775 22.559999465942383 5.28000020980835 L22.560001373291016 8.352001190185547 L22.559999465942383 11.42400074005127 L22.559999465942383 14.496000289916992 L22.560001373291016 17.56800079345703 L22.559999465942383 20.639999389648438 C22.38687515258789 21.058122634887695 22.018123626708984 21.426876068115234 21.599998474121094 21.599998474121094 L18.399999618530273 21.599998474121094 L15.199999809265137 21.599998474121094 L12.0 21.599998474121094 L8.800000190734863 21.599998474121094 L5.599999904632568 21.599998474121094 L2.40000057220459 21.599998474121094 C1.9818763732910156 21.426876068115234 1.6131258010864258 21.058122634887695 1.4400005340576172 20.639999389648438 L1.4400005340576172 17.184001922607422 L1.4400005340576172 13.72800064086914 L1.4400005340576172 10.272001266479492 L1.4400005340576172 6.816000461578369 L1.4400005340576172 3.3600006103515625 C1.6131258010864258 2.9418764114379883 1.9818763732910156 2.5731258392333984 2.40000057220459 2.40000057220459 L2.40000057220459 2.40000057220459"></path>
<path fill="none" stroke="black" stroke-width=".3" stroke-opacity="1.0"  d="M17.760000228881836 9.600000381469727 L17.760000228881836 9.600000381469727 C18.3551025390625 9.718419075012207 18.8338565826416 9.869729042053223 19.090347290039062 10.488951683044434 C19.47652816772461 11.421273231506348 18.76919937133789 12.479999542236328 17.760000228881836 12.479999542236328 C16.75080108642578 12.479999542236328 16.04347038269043 11.42127513885498 16.42965316772461 10.488951683044434 C16.686141967773438 9.869728088378906 17.164894104003906 9.718420028686523 17.760000228881836 9.600000381469727 L17.760000228881836 9.600000381469727"></path>
<path fill="none" stroke="black" stroke-width=".3" stroke-opacity="1.0"  d="M22.559999465942383 12.479999542236328 L22.559999465942383 10.079999923706055 L22.559999465942383 7.680000305175781 C22.38687515258789 7.261876106262207 22.018123626708984 6.893125057220459 21.599998474121094 6.720000267028809 L18.399999618530273 6.720000267028809 L15.199999809265137 6.720000743865967 L12.0 6.720000267028809 L8.800000190734863 6.720000743865967 L5.599999904632568 6.720000267028809 L2.40000057220459 6.720000267028809 C1.9818763732910156 6.893125057220459 1.6131258010864258 7.261876106262207 1.4400005340576172 7.680000305175781 L1.4400005340576172 10.079999923706055 L1.4400005340576172 12.479999542236328"></path>
<path fill="none" stroke="black" stroke-width=".3" stroke-opacity="1.0"  d="M13.732800483703613 16.507200241088867 L11.666399955749512 14.253600120544434 L9.600000381469727 12.0 L7.840000629425049 13.920001029968262 L6.080000400543213 15.84000015258789 L4.320000171661377 17.760000228881836"></path>
<path fill="none" stroke="black" stroke-width=".3" stroke-opacity="1.0"  d="M19.68000030517578 18.239999771118164 L17.760000228881836 16.31999969482422 L15.84000015258789 14.399999618530273 L13.920000076293945 16.31999969482422 L12.0 18.239999771118164"></path></svg>