<svg xmlns="http://www.w3.org/2000/svg" viewBox="0.0 0.0 24.0 24.0" height="200px" width="200px"><path fill="none" stroke="black" stroke-width=".3" stroke-opacity="1.0"  d="M12.0 1.1999998092651367 L12.0 1.1999998092651367 C12.599639892578125 1.2167272567749023 13.190882682800293 1.269815444946289 13.771734237670898 1.364969253540039 C14.352585792541504 1.4601240158081055 14.923046112060547 1.5973453521728516 15.481121063232422 1.7823429107666016 C16.039196014404297 1.9673395156860352 16.584884643554688 2.2001113891601562 17.116193771362305 2.486368179321289 C17.78725242614746 2.847919464111328 18.404462814331055 3.2739973068237305 18.96459197998047 3.7530059814453125 C19.52471923828125 4.2320146560668945 20.027767181396484 4.763954162597656 20.470497131347656 5.337228298187256 C20.91322898864746 5.9105024337768555 21.295644760131836 6.525111198425293 21.61450958251953 7.169458389282227 C21.93337631225586 7.81380558013916 22.188690185546875 8.487890243530273 22.377225875854492 9.1801176071167 C22.565757751464844 9.872344970703125 22.687509536743164 10.582714080810547 22.739242553710938 11.299631118774414 C22.790977478027344 12.016546249389648 22.772693634033203 12.740007400512695 22.68115997314453 13.458416938781738 C22.58962631225586 14.176827430725098 22.42484474182129 14.890188217163086 22.183574676513672 15.58690071105957 C21.942310333251953 16.283615112304688 21.62455940246582 16.963682174682617 21.227088928222656 17.61550521850586 C20.879169464111328 18.186077117919922 20.478076934814453 18.723716735839844 20.03133773803711 19.22030258178711 C19.584598541259766 19.716886520385742 19.092212677001953 20.17241668701172 18.561702728271484 20.578765869140625 C18.02568244934082 20.989334106445312 17.451356887817383 21.349117279052734 16.84866714477539 21.652496337890625 C16.245975494384766 21.95587158203125 15.614920616149902 22.202838897705078 14.96544361114502 22.38777732849121 C14.283864974975586 22.58185577392578 13.583539962768555 22.70754623413086 12.877620697021484 22.76451873779297 C12.171701431274414 22.821491241455078 11.460188865661621 22.80974578857422 10.756234169006348 22.728954315185547 C10.060449600219727 22.64910125732422 9.373579025268555 22.50028419494629 8.70754623413086 22.28652572631836 C8.041513442993164 22.072765350341797 7.39631986618042 21.79405975341797 6.78388786315918 21.454425811767578 C6.203630447387695 21.13263702392578 5.666511535644531 20.761558532714844 5.169857501983643 20.347427368164062 C4.6732025146484375 19.933292388916016 4.217012405395508 19.476102828979492 3.798611640930176 18.982088088989258 C3.3802099227905273 18.48807144165039 2.9995975494384766 17.957233428955078 2.654099464416504 17.39579963684082 L4.523279666900635 16.316640853881836 L6.392459869384766 15.237481117248535 L8.261639595031738 14.158320426940918 L10.130820274353027 13.0791597366333 L12.0 12.0 L12.0 9.84000015258789 L12.0 7.679999828338623 L12.0 5.5199995040893555 L12.0 3.359999656677246 L12.0 1.1999998092651367"></path>
<path fill="none" stroke="black" stroke-width=".3" stroke-opacity="1.0"  d="M12.0 1.3499994277954102 L12.0 1.3499994277954102 C12.544978141784668 1.365797996520996 13.082512855529785 1.4109621047973633 13.61170482635498 1.491011619567871 C14.140896797180176 1.5710601806640625 14.6617431640625 1.6859970092773438 15.173345565795898 1.8413400650024414 C15.68494987487793 1.9966821670532227 16.187305450439453 2.192432403564453 16.679519653320312 2.434110641479492 C17.329681396484375 2.753342628479004 17.933643341064453 3.1339073181152344 18.487796783447266 3.565664291381836 C19.041950225830078 3.9974193572998047 19.546293258666992 4.480368137359619 19.997220993041992 5.004366397857666 C20.44814682006836 5.528365135192871 20.845661163330078 6.0934157371521 21.18614959716797 6.689375877380371 C21.52663803100586 7.285336017608643 21.810108184814453 7.91220760345459 22.032941818237305 8.55984878540039 C22.255779266357422 9.207489967346191 22.417984008789062 9.875901222229004 22.515953063964844 10.55494213104248 C22.613924026489258 11.233983039855957 22.647655487060547 11.923652648925781 22.613544464111328 12.613813400268555 C22.579431533813477 13.303973197937012 22.47747802734375 13.994621276855469 22.30406951904297 14.675619125366211 C22.13066291809082 15.356616973876953 21.885805130004883 16.027963638305664 21.56589126586914 16.679519653320312 C21.30739974975586 17.205970764160156 21.00505828857422 17.710554122924805 20.663673400878906 18.187191009521484 C20.322284698486328 18.663827896118164 19.941856384277344 19.112518310546875 19.52718734741211 19.52718734741211 C19.04270362854004 20.011669158935547 18.511795043945312 20.449193954467773 17.944255828857422 20.83240509033203 C17.3767147064209 21.215618133544922 16.772541046142578 21.544519424438477 16.141521453857422 21.81175994873047 C15.48790168762207 22.088571548461914 14.807384490966797 22.29813003540039 14.11284065246582 22.438488006591797 C13.418295860290527 22.578845977783203 12.709726333618164 22.650001525878906 12.0 22.650001525878906 C11.290276527404785 22.650001525878906 10.581705093383789 22.578845977783203 9.88715934753418 22.438488006591797 C9.192614555358887 22.29813003540039 8.512096405029297 22.088571548461914 7.858476161956787 21.81175994873047 C7.2274580001831055 21.544519424438477 6.623283863067627 21.215618133544922 6.0557427406311035 20.83240509033203 C5.488202095031738 20.449193954467773 4.9572954177856445 20.011669158935547 4.472812175750732 19.52718734741211 C4.058143138885498 19.112516403198242 3.677713394165039 18.66382598876953 3.33632755279541 18.187191009521484 C2.9949417114257812 17.710552215576172 2.6926002502441406 17.205970764160156 2.434109687805176 16.67951774597168 C2.114194869995117 16.027963638305664 1.8693370819091797 15.356616020202637 1.6959295272827148 14.675618171691895 C1.5225229263305664 13.994620323181152 1.420567512512207 13.303972244262695 1.3864555358886719 12.613811492919922 C1.3523445129394531 11.923651695251465 1.3860759735107422 11.23398208618164 1.4840450286865234 10.554941177368164 C1.582015037536621 9.875900268554688 1.7442207336425781 9.207489013671875 1.9670581817626953 8.559847831726074 C2.1898937225341797 7.912206649780273 2.473360061645508 7.285336017608643 2.8138484954833984 6.689375877380371 C3.1543378829956055 6.0934157371521 3.5518503189086914 5.528365612030029 4.00277853012085 5.004367351531982 C4.45370626449585 4.480368614196777 4.95805025100708 3.997420310974121 5.512202739715576 3.565664291381836 C6.066356182098389 3.133908271789551 6.670317649841309 2.753342628479004 7.320480823516846 2.434109687805176 C7.8126935958862305 2.1924314498901367 8.315052032470703 1.9966821670532227 8.826654434204102 1.841339111328125 C9.3382568359375 1.6859960556030273 9.859103202819824 1.5710601806640625 10.38829517364502 1.491011619567871 C10.917486190795898 1.4109611511230469 11.455020904541016 1.365797996520996 12.0 1.3499994277954102 L12.0 1.3499994277954102"></path>
<path fill="none" stroke="black" stroke-width=".3" stroke-opacity="1.0"  d="M12.149999618530273 1.3512001037597656 L12.149999618530273 1.3512001037597656 C12.755365371704102 1.3770217895507812 13.351300239562988 1.4405651092529297 13.935590744018555 1.5475244522094727 C14.519881248474121 1.654484748840332 15.092530250549316 1.804861068725586 15.651322364807129 2.004347801208496 C16.210113525390625 2.2038326263427734 16.755048751831055 2.45242977142334 17.28391456604004 2.7558298110961914 C17.908357620239258 3.114060401916504 18.483491897583008 3.5298023223876953 19.006362915039062 3.9929094314575195 C19.529232025146484 4.456015586853027 19.999841690063477 4.966487407684326 20.415237426757812 5.514179229736328 C20.830631256103516 6.06187105178833 21.190811157226562 6.646782875061035 21.492820739746094 7.258769989013672 C21.79483413696289 7.870757102966309 22.038681030273438 8.509819030761719 22.22140884399414 9.165811538696289 C22.404136657714844 9.82180404663086 22.525745391845703 10.494725227355957 22.583282470703125 11.174433708190918 C22.640823364257812 11.854140281677246 22.634288787841797 12.540632247924805 22.560731887817383 13.223764419555664 C22.48717498779297 13.906896591186523 22.346599578857422 14.586669921875 22.13604736328125 15.252938270568848 C21.925493240356445 15.919205665588379 21.64496612548828 16.571969985961914 21.29151153564453 17.201082229614258 C20.956851959228516 17.796743392944336 20.564613342285156 18.359458923339844 20.122859954833984 18.88018798828125 C19.681106567382812 19.400917053222656 19.189838409423828 19.87965965270996 18.65711212158203 20.307376861572266 C18.119850158691406 20.73873519897461 17.54103660583496 21.11758041381836 16.931339263916016 21.437482833862305 C16.321640014648438 21.75738525390625 15.681058883666992 22.01834487915039 15.02026081085205 22.213939666748047 C14.343511581420898 22.41425323486328 13.646895408630371 22.546146392822266 12.944112777709961 22.608367919921875 C12.241328239440918 22.670589447021484 11.532376289367676 22.66314697265625 10.83095645904541 22.584796905517578 C10.321630477905273 22.527904510498047 9.817052841186523 22.43340492248535 9.321946144104004 22.303218841552734 C8.826839447021484 22.17303466796875 8.341202735900879 22.007158279418945 7.869757175445557 21.807510375976562 C7.398311138153076 21.60786247253418 6.9410552978515625 21.37444305419922 6.502710342407227 21.10916519165039 C5.99811315536499 20.803794860839844 5.530083656311035 20.460420608520508 5.0953450202941895 20.083316802978516 C4.6606059074401855 19.706212997436523 4.259158134460449 19.295379638671875 3.887725830078125 18.855087280273438 C3.516293525695801 18.414793014526367 3.174877166748047 17.94504165649414 2.8601999282836914 17.45009994506836 L4.718160152435303 16.37742042541504 L6.576119899749756 15.304739952087402 L8.434080123901367 14.232060432434082 L10.29203987121582 13.159379959106445 L12.149999618530273 12.086700439453125 L12.149999618530273 9.939599990844727 L12.149999618530273 7.7925004959106445 L12.149999618530273 5.645400047302246 L12.149999618530273 3.4982995986938477 L12.149999618530273 1.3512001037597656"></path>
<path fill="none" stroke="black" stroke-width=".3" stroke-opacity="1.0"  d="M12.0 1.5 L12.0 1.5 C12.537299156188965 1.5155763626098633 13.067259788513184 1.560105323791504 13.588993072509766 1.6390295028686523 C14.110725402832031 1.7179527282714844 14.62423324584961 1.8312721252441406 15.12862491607666 1.9844293594360352 C15.633017539978027 2.1375865936279297 16.1282958984375 2.330580711364746 16.613571166992188 2.568857192993164 C17.254573822021484 2.883596420288086 17.850027084350586 3.258800506591797 18.396373748779297 3.684476852416992 C18.942720413208008 4.1101508140563965 19.43996238708496 4.586295127868652 19.884540557861328 5.102911472320557 C20.329120635986328 5.619527816772461 20.72103500366211 6.1766157150268555 21.056732177734375 6.764179229736328 C21.39242935180664 7.351742267608643 21.67190933227539 7.969779968261719 21.89160919189453 8.608295440673828 C22.111310958862305 9.246809959411621 22.271236419677734 9.905803680419922 22.367828369140625 10.575275421142578 C22.464420318603516 11.24474811553955 22.4976806640625 11.924701690673828 22.46405029296875 12.605138778686523 C22.430419921875 13.285573959350586 22.329898834228516 13.966493606567383 22.158935546875 14.637897491455078 C21.98796844482422 15.309301376342773 21.746559143066406 15.971192359924316 21.431142807006836 16.613571166992188 C21.176288604736328 17.132610321044922 20.878204345703125 17.630084991455078 20.541622161865234 18.10000991821289 C20.20504379272461 18.569934844970703 19.82996940612793 19.012306213378906 19.421138763427734 19.4211368560791 C18.943477630615234 19.89879608154297 18.420045852661133 20.330162048339844 17.860498428344727 20.70798110961914 C17.300949096679688 21.085800170898438 16.705284118652344 21.41007423400879 16.083152770996094 21.673553466796875 C15.438745498657227 21.946468353271484 14.767818450927734 22.153079986572266 14.083063125610352 22.291461944580078 C13.398306846618652 22.429845809936523 12.699721336364746 22.5 12.0 22.5 C11.300275802612305 22.5 10.601691246032715 22.42984390258789 9.916934967041016 22.291461944580078 C9.232178688049316 22.153076171875 8.561251640319824 21.94646453857422 7.916845321655273 21.673551559448242 C7.294714450836182 21.410072326660156 6.699049472808838 21.085800170898438 6.139501571655273 20.70798110961914 C5.579953670501709 20.330163955688477 5.056522846221924 19.898799896240234 4.578862190246582 19.421138763427734 C4.170032978057861 19.012310028076172 3.7949581146240234 18.569934844970703 3.458376884460449 18.10000991821289 C3.1217966079711914 17.630084991455078 2.823709487915039 17.13260841369629 2.5688562393188477 16.613571166992188 C2.25344181060791 15.97119140625 2.0120296478271484 15.309300422668457 1.8410654067993164 14.637896537780762 C1.670100212097168 13.96649169921875 1.5695810317993164 13.28557300567627 1.5359516143798828 12.60513687133789 C1.5023202896118164 11.924701690673828 1.5355806350708008 11.24474811553955 1.6321735382080078 10.575275421142578 C1.7287654876708984 9.905803680419922 1.8886909484863281 9.246809959411621 2.1083927154541016 8.608295440673828 C2.328094482421875 7.969779968261719 2.607571601867676 7.351741790771484 2.943267822265625 6.764179229736328 C3.278964042663574 6.1766157150268555 3.6708812713623047 5.619527816772461 4.115458965301514 5.102911472320557 C4.560037612915039 4.5862956047058105 5.057279109954834 4.1101508140563965 5.603626251220703 3.684476852416992 C6.149973392486572 3.258800506591797 6.745426654815674 2.8835954666137695 7.3864288330078125 2.5688562393188477 C7.8717041015625 2.330580711364746 8.366981506347656 2.1375865936279297 8.871374130249023 1.9844293594360352 C9.37576675415039 1.8312721252441406 9.889273643493652 1.7179527282714844 10.411006927490234 1.6390295028686523 C10.932741165161133 1.560105323791504 11.462700843811035 1.5155763626098633 12.0 1.5 L12.0 1.5"></path>
<path fill="none" stroke="black" stroke-width=".3" stroke-opacity="1.0"  d="M12.300000190734863 1.5041999816894531 L12.300000190734863 1.5041999816894531 C12.844749450683594 1.535660743713379 13.38099479675293 1.596853256225586 13.907636642456055 1.6932592391967773 C14.434276580810547 1.7896671295166016 14.951310157775879 1.9212865829467773 15.457635879516602 2.0936050415039062 C15.963960647583008 2.2659215927124023 16.459579467773438 2.4789352416992188 16.943384170532227 2.7381277084350586 C17.548694610595703 3.0624160766601562 18.12134552001953 3.446436882019043 18.65180015563965 3.8818883895874023 C19.182254791259766 4.31734037399292 19.670515060424805 4.804223537445068 20.107044219970703 5.334237575531006 C20.483245849609375 5.791000843048096 20.82076644897461 6.279367446899414 21.11509132385254 6.792486667633057 C21.40941619873047 7.305605888366699 21.660539627075195 7.843478202819824 21.86394691467285 8.399252891540527 C22.120418548583984 9.100018501281738 22.294525146484375 9.812751770019531 22.391679763793945 10.526815414428711 C22.488834381103516 11.240880966186523 22.50904083251953 11.956277847290039 22.457712173461914 12.662372589111328 C22.406383514404297 13.3684663772583 22.283519744873047 14.06525707244873 22.094533920288086 14.742108345031738 C21.90555191040039 15.418960571289062 21.65044593811035 16.07587432861328 21.334640502929688 16.702213287353516 C21.018829345703125 17.328554153442383 20.642318725585938 17.924320220947266 20.21051597595215 18.47887420654297 C19.77871322631836 19.033430099487305 19.291622161865234 19.546775817871094 18.754657745361328 20.008281707763672 C18.21769142150879 20.46978187561035 17.630849838256836 20.879440307617188 16.999549865722656 21.22661590576172 C16.36825180053711 21.573793411254883 15.69249153137207 21.858489990234375 14.977688789367676 22.070072174072266 C14.302947044372559 22.269794464111328 13.608194351196289 22.40052032470703 12.907378196716309 22.46098518371582 C12.206562042236328 22.521453857421875 11.499685287475586 22.51166534423828 10.800694465637207 22.430360794067383 C10.114927291870117 22.350595474243164 9.438016891479492 22.201705932617188 8.781991958618164 21.988435745239258 C8.125967025756836 21.775165557861328 7.490827560424805 21.497516632080078 6.888599872589111 21.160236358642578 C6.360451698303223 20.864442825317383 5.870121955871582 20.527042388916016 5.414330959320068 20.15279197692871 C4.958540439605713 19.778541564941406 4.537288188934326 19.36744499206543 4.147293567657471 18.92426109313965 C3.757298469543457 18.481075286865234 3.3985605239868164 18.005802154541016 3.0677995681762695 17.50320053100586 L4.914239883422852 16.43718147277832 L6.760679244995117 15.371160507202148 L8.607120513916016 14.305139541625977 L10.453559875488281 13.239120483398438 L12.300000190734863 12.173099517822266 L12.300000190734863 10.03931999206543 L12.300000190734863 7.9055399894714355 L12.300000190734863 5.771759986877441 L12.300000190734863 3.637979507446289 L12.300000190734863 1.5041999816894531"></path>
<path fill="none" stroke="black" stroke-width=".3" stroke-opacity="1.0"  d="M1.1999998092651367 12.0 L1.1999998092651367 12.0 C1.2167272567749023 11.400360107421875 1.269815444946289 10.80911636352539 1.364969253540039 10.228264808654785 C1.4601240158081055 9.64741325378418 1.5973453521728516 9.07695198059082 1.7823429107666016 8.518877983093262 C1.9673395156860352 7.960803031921387 2.2001113891601562 7.415114402770996 2.486368179321289 6.883805751800537 C2.8219614028930664 6.260926246643066 3.214078903198242 5.683226585388184 3.653360366821289 5.153865337371826 C4.0926408767700195 4.6245036125183105 4.5790863037109375 4.143479824066162 5.103334426879883 3.7139511108398438 C5.627582550048828 3.2844228744506836 6.189634323120117 2.9063901901245117 6.780128002166748 2.5830116271972656 C7.370622158050537 2.2596330642700195 7.989558219909668 1.9909076690673828 8.627575874328613 1.779994010925293 C9.265593528747559 1.5690803527832031 9.92269229888916 1.4159793853759766 10.589513778686523 1.3238487243652344 C11.256333351135254 1.2317171096801758 11.93287467956543 1.2005548477172852 12.60977554321289 1.2335214614868164 C13.286677360534668 1.2664871215820312 13.96393871307373 1.363581657409668 14.63219928741455 1.5279607772827148 C15.300459861755371 1.6923408508300781 15.95971965789795 1.9240055084228516 16.600618362426758 2.226116180419922 C17.206493377685547 2.5117149353027344 17.78491973876953 2.85427188873291 18.327116012573242 3.2468976974487305 C18.86931037902832 3.639524459838867 19.375272750854492 4.082220077514648 19.836225509643555 4.5680975914001465 C20.298107147216797 5.054956912994385 20.714290618896484 5.584667682647705 21.078250885009766 6.14808464050293 C21.442209243774414 6.711501121520996 21.753944396972656 7.308623790740967 22.00693130493164 7.930305004119873 C22.26931381225586 8.575075149536133 22.46758270263672 9.244503021240234 22.60025405883789 9.926736831665039 C22.732925415039062 10.608970642089844 22.799999237060547 11.304009437561035 22.799999237060547 12.0 C22.799999237060547 12.695989608764648 22.732925415039062 13.39102840423584 22.60025405883789 14.073262214660645 C22.46758270263672 14.75549602508545 22.269319534301758 15.424924850463867 22.006935119628906 16.06969451904297 C21.753952026367188 16.691377639770508 21.442214965820312 17.288497924804688 21.07825469970703 17.851913452148438 C20.714296340942383 18.415328979492188 20.298114776611328 18.945039749145508 19.836231231689453 19.43189811706543 C19.375282287597656 19.917774200439453 18.86931800842285 20.3604736328125 18.32712173461914 20.753097534179688 C17.78492546081543 21.14572525024414 17.206499099731445 21.488283157348633 16.600624084472656 21.773881912231445 C15.959724426269531 22.07598876953125 15.300463676452637 22.30765724182129 14.632203102111816 22.472034454345703 C13.963942527770996 22.636417388916016 13.286680221557617 22.733509063720703 12.609779357910156 22.766475677490234 C11.932878494262695 22.799442291259766 11.256336212158203 22.768281936645508 10.589515686035156 22.676151275634766 C9.922696113586426 22.584020614624023 9.265596389770508 22.430919647216797 8.627578735351562 22.220006942749023 C7.989560127258301 22.00909423828125 7.370624542236328 21.740371704101562 6.780130386352539 21.4169921875 C6.18963623046875 21.093616485595703 5.627584934234619 20.71558380126953 5.103336811065674 20.286052703857422 C4.57908821105957 19.856525421142578 4.092642784118652 19.37550163269043 3.6533613204956055 18.846139907836914 C3.2140798568725586 18.3167781829834 2.8219614028930664 17.739078521728516 2.486368179321289 17.11619758605957 C2.2001113891601562 16.584888458251953 1.9673385620117188 16.039199829101562 1.7823410034179688 15.481124877929688 C1.5973453521728516 14.923049926757812 1.4601240158081055 14.35258960723877 1.3649682998657227 13.771736145019531 C1.269815444946289 13.190884590148926 1.2167282104492188 12.599640846252441 1.1999998092651367 12.0 L1.1999998092651367 12.0"></path></svg>