<svg width="130" height="39" viewBox="0 0 130 39" fill="none" xmlns="http://www.w3.org/2000/svg">
<path d="M0.570801 18.421V33.9999H5.96014C8.33116 33.9418 10.1131 33.2799 11.3058 32.0144C12.5132 30.7343 13.1168 28.7997 13.1168 26.2105C13.1168 23.6213 12.5132 21.6939 11.3058 20.4284C10.1131 19.1483 8.33116 18.4792 5.96014 18.421H0.570801ZM2.05451 32.7344V19.6866H5.21829C6.33834 19.6866 7.29839 19.8102 8.09843 20.0575C8.91301 20.2902 9.58213 20.6684 10.1058 21.1921C10.6295 21.7157 11.0149 22.3921 11.2622 23.2213C11.5095 24.0504 11.6331 25.0468 11.6331 26.2105C11.6331 27.3742 11.5095 28.3706 11.2622 29.1997C11.0149 30.0289 10.6295 30.7052 10.1058 31.2289C9.58213 31.7526 8.91301 32.138 8.09843 32.3853C7.29839 32.6181 6.33834 32.7344 5.21829 32.7344H2.05451Z" fill="black"/>
<path d="M23.3407 27.5851H16.0531C16.1112 27.076 16.2276 26.5814 16.4022 26.1014C16.5913 25.6068 16.8385 25.1777 17.144 24.8141C17.4495 24.4359 17.8204 24.1377 18.2568 23.9195C18.6932 23.6867 19.195 23.5704 19.7623 23.5704C20.3151 23.5704 20.8096 23.6867 21.246 23.9195C21.6824 24.1377 22.0533 24.4359 22.3588 24.8141C22.6643 25.1777 22.897 25.5996 23.057 26.0796C23.2316 26.5596 23.3261 27.0614 23.3407 27.5851ZM16.0531 28.7415H24.7153C24.7444 27.956 24.6716 27.1851 24.4971 26.4287C24.3225 25.6577 24.0316 24.9813 23.6243 24.3995C23.2316 23.8031 22.7152 23.3231 22.0752 22.9594C21.4351 22.5958 20.6642 22.414 19.7623 22.414C18.875 22.414 18.1041 22.5885 17.4495 22.9376C16.8095 23.2722 16.2858 23.7231 15.8785 24.2904C15.4712 24.8432 15.1657 25.4759 14.9621 26.1887C14.773 26.9014 14.6784 27.6287 14.6784 28.3706C14.6784 29.1706 14.773 29.9343 14.9621 30.6616C15.1657 31.3744 15.4712 32.0071 15.8785 32.5599C16.2858 33.0981 16.8095 33.5272 17.4495 33.8472C18.1041 34.1527 18.875 34.3054 19.7623 34.3054C21.1878 34.3054 22.2861 33.9563 23.057 33.2581C23.8425 32.5599 24.3807 31.5707 24.6716 30.2907H23.297C23.0788 31.1635 22.6861 31.8617 22.1188 32.3853C21.5515 32.909 20.766 33.1708 19.7623 33.1708C19.1077 33.1708 18.5477 33.0326 18.0822 32.7563C17.6168 32.4799 17.2313 32.1308 16.9258 31.7089C16.6204 31.2871 16.3949 30.8143 16.2494 30.2907C16.1185 29.7525 16.0531 29.2361 16.0531 28.7415Z" fill="black"/>
<path d="M34.6551 27.5851H27.3675C27.4257 27.076 27.5421 26.5814 27.7166 26.1014C27.9057 25.6068 28.153 25.1777 28.4585 24.8141C28.7639 24.4359 29.1349 24.1377 29.5712 23.9195C30.0076 23.6867 30.5095 23.5704 31.0768 23.5704C31.6295 23.5704 32.1241 23.6867 32.5605 23.9195C32.9969 24.1377 33.3678 24.4359 33.6733 24.8141C33.9787 25.1777 34.2115 25.5996 34.3715 26.0796C34.546 26.5596 34.6406 27.0614 34.6551 27.5851ZM27.3675 28.7415H36.0297C36.0588 27.956 35.9861 27.1851 35.8115 26.4287C35.637 25.6577 35.3461 24.9813 34.9388 24.3995C34.546 23.8031 34.0296 23.3231 33.3896 22.9594C32.7496 22.5958 31.9786 22.414 31.0768 22.414C30.1895 22.414 29.4185 22.5885 28.7639 22.9376C28.1239 23.2722 27.6002 23.7231 27.193 24.2904C26.7857 24.8432 26.4802 25.4759 26.2765 26.1887C26.0874 26.9014 25.9929 27.6287 25.9929 28.3706C25.9929 29.1706 26.0874 29.9343 26.2765 30.6616C26.4802 31.3744 26.7857 32.0071 27.193 32.5599C27.6002 33.0981 28.1239 33.5272 28.7639 33.8472C29.4185 34.1527 30.1895 34.3054 31.0768 34.3054C32.5023 34.3054 33.6005 33.9563 34.3715 33.2581C35.157 32.5599 35.6952 31.5707 35.9861 30.2907H34.6115C34.3933 31.1635 34.0005 31.8617 33.4332 32.3853C32.8659 32.909 32.0805 33.1708 31.0768 33.1708C30.4222 33.1708 29.8622 33.0326 29.3967 32.7563C28.9312 32.4799 28.5457 32.1308 28.2403 31.7089C27.9348 31.2871 27.7093 30.8143 27.5639 30.2907C27.433 29.7525 27.3675 29.2361 27.3675 28.7415Z" fill="black"/>
<path d="M37.8746 22.7412V38.1456H39.2493V31.8617H39.2929C39.4384 32.269 39.642 32.6253 39.9038 32.9308C40.1802 33.2363 40.4929 33.4908 40.8421 33.6945C41.1912 33.8981 41.5694 34.0509 41.9767 34.1527C42.3839 34.2545 42.7912 34.3054 43.1985 34.3054C44.0568 34.3054 44.7986 34.1527 45.4241 33.8472C46.0641 33.5272 46.5951 33.0981 47.0169 32.5599C47.4387 32.0071 47.7515 31.3744 47.9551 30.6616C48.1588 29.9343 48.2606 29.1706 48.2606 28.3706C48.2606 27.5706 48.1588 26.8142 47.9551 26.1014C47.7515 25.3741 47.4387 24.7413 47.0169 24.2031C46.5951 23.6504 46.0641 23.214 45.4241 22.894C44.7986 22.574 44.0568 22.414 43.1985 22.414C42.2821 22.414 41.4603 22.6321 40.733 23.0685C40.0202 23.4904 39.5038 24.094 39.1838 24.8795H39.1402V22.7412H37.8746ZM46.886 28.3706C46.886 28.9524 46.8132 29.5343 46.6678 30.1161C46.5369 30.6834 46.3187 31.1925 46.0132 31.6435C45.7223 32.0944 45.3441 32.4653 44.8786 32.7563C44.4131 33.0326 43.8531 33.1708 43.1985 33.1708C42.4712 33.1708 41.853 33.0326 41.3439 32.7563C40.8493 32.4653 40.442 32.0944 40.122 31.6435C39.8166 31.1925 39.5911 30.6834 39.4456 30.1161C39.3147 29.5343 39.2493 28.9524 39.2493 28.3706C39.2493 27.7306 39.3074 27.1196 39.4238 26.5378C39.5547 25.9559 39.7729 25.4468 40.0784 25.0104C40.3839 24.5741 40.7911 24.2249 41.3003 23.9631C41.8094 23.7013 42.4421 23.5704 43.1985 23.5704C43.8531 23.5704 44.4131 23.7158 44.8786 24.0068C45.3441 24.2831 45.7223 24.6468 46.0132 25.0977C46.3187 25.5486 46.5369 26.065 46.6678 26.6469C46.8132 27.2142 46.886 27.7887 46.886 28.3706Z" fill="black"/>
<path d="M51.3637 28.8724H49.88C49.8363 29.8325 49.96 30.6543 50.2509 31.338C50.5564 32.0217 50.9855 32.5817 51.5382 33.0181C52.091 33.4545 52.7601 33.7818 53.5456 33.9999C54.3311 34.2036 55.182 34.3054 56.0984 34.3054C57.0149 34.3054 57.8003 34.2181 58.4549 34.0436C59.1095 33.8836 59.655 33.6727 60.0914 33.4108C60.5423 33.1345 60.8914 32.829 61.1387 32.4944C61.4005 32.1599 61.5969 31.8326 61.7278 31.5126C61.8733 31.178 61.9605 30.8653 61.9896 30.5743C62.0333 30.2834 62.0551 30.0507 62.0551 29.8761C62.0551 29.2361 61.946 28.6906 61.7278 28.2397C61.5242 27.7887 61.2332 27.4105 60.855 27.1051C60.4914 26.7851 60.0623 26.5232 59.5677 26.3196C59.0877 26.1014 58.5713 25.9196 58.0185 25.7741L54.222 24.8359C53.902 24.7632 53.5965 24.6686 53.3056 24.5522C53.0292 24.4359 52.7819 24.2831 52.5637 24.094C52.3455 23.9049 52.171 23.6795 52.0401 23.4176C51.9237 23.1413 51.8655 22.8212 51.8655 22.4576C51.8655 21.8757 51.9746 21.3884 52.1928 20.9957C52.411 20.603 52.6947 20.2902 53.0438 20.0575C53.4074 19.8102 53.822 19.6356 54.2875 19.5338C54.7675 19.4174 55.262 19.3593 55.7712 19.3593C56.3239 19.3593 56.8476 19.4393 57.3421 19.5993C57.8513 19.7447 58.2949 19.9702 58.6731 20.2757C59.0659 20.5666 59.3786 20.9375 59.6113 21.3885C59.8586 21.8248 59.9968 22.3412 60.0259 22.9376H61.5096C61.5096 22.1376 61.3496 21.4394 61.0296 20.843C60.7241 20.232 60.3096 19.7229 59.7859 19.3156C59.2622 18.9083 58.6513 18.6029 57.9531 18.3992C57.2549 18.1956 56.5203 18.0938 55.7493 18.0938C54.6584 18.0938 53.7638 18.2538 53.0656 18.5738C52.3674 18.8792 51.8146 19.2574 51.4073 19.7084C51.0146 20.1593 50.7455 20.6393 50.6 21.1484C50.4545 21.6576 50.3818 22.1012 50.3818 22.4794C50.3818 23.0903 50.4764 23.6067 50.6655 24.0286C50.8691 24.4504 51.1309 24.8068 51.451 25.0977C51.771 25.3886 52.1419 25.6214 52.5637 25.7959C53.0001 25.9705 53.4438 26.1159 53.8947 26.2323L57.364 27.0833C57.7276 27.1705 58.0985 27.2869 58.4767 27.4324C58.8549 27.5633 59.1968 27.7378 59.5022 27.956C59.8223 28.1742 60.0768 28.4433 60.2659 28.7633C60.4696 29.0834 60.5714 29.4616 60.5714 29.8979C60.5714 30.4652 60.4332 30.9525 60.1568 31.3598C59.8804 31.7526 59.5313 32.0799 59.1095 32.3417C58.7022 32.589 58.2585 32.7708 57.7785 32.8872C57.2985 33.0035 56.8548 33.0617 56.4476 33.0617C55.7348 33.0617 55.0657 32.9963 54.4402 32.8654C53.8147 32.7199 53.2692 32.4872 52.8037 32.1671C52.3528 31.8471 51.9964 31.418 51.7346 30.8798C51.4728 30.3416 51.3491 29.6725 51.3637 28.8724Z" fill="black"/>
<path d="M62.7071 18.421L68.4674 33.9999H70.1911L75.9732 18.421H74.4022L69.3838 32.3635H69.3401L64.2781 18.421H62.7071Z" fill="black"/>
<path d="M90.6526 33.9999V26.0796H84.0413V27.3451H89.3434C89.358 28.1742 89.2489 28.9379 89.0161 29.6361C88.7834 30.3343 88.4343 30.938 87.9688 31.4471C87.5033 31.9562 86.9287 32.3562 86.2451 32.6472C85.576 32.9235 84.8123 33.0617 83.9541 33.0617C82.9213 33.0617 82.034 32.8654 81.2921 32.4726C80.5503 32.0799 79.9393 31.5635 79.4593 30.9234C78.9938 30.2689 78.6447 29.5343 78.412 28.7197C78.1938 27.8906 78.0847 27.0542 78.0847 26.2105C78.0847 25.3523 78.1938 24.5159 78.412 23.7013C78.6447 22.8867 78.9938 22.1594 79.4593 21.5194C79.9393 20.8648 80.5503 20.3411 81.2921 19.9484C82.034 19.5556 82.9213 19.3593 83.9541 19.3593C84.6959 19.3593 85.365 19.4829 85.9614 19.7302C86.5578 19.9629 87.0669 20.2684 87.4888 20.6466C87.9252 21.0248 88.267 21.4466 88.5143 21.9121C88.7761 22.363 88.9288 22.814 88.9725 23.2649H90.4562C90.3107 22.4067 90.0416 21.6576 89.6489 21.0175C89.2561 20.3775 88.7761 19.8393 88.2088 19.4029C87.6415 18.9665 86.9942 18.6392 86.2669 18.421C85.5396 18.2028 84.7686 18.0938 83.9541 18.0938C82.7322 18.0938 81.6558 18.3192 80.7248 18.7701C79.8084 19.2065 79.0447 19.8029 78.4338 20.5593C77.8229 21.3012 77.3647 22.1594 77.0592 23.134C76.7537 24.1086 76.601 25.1341 76.601 26.2105C76.601 27.2869 76.7537 28.3124 77.0592 29.287C77.3647 30.2616 77.8229 31.1198 78.4338 31.8617C79.0447 32.6035 79.8084 33.1999 80.7248 33.6508C81.6558 34.0872 82.7322 34.3054 83.9541 34.3054C84.5214 34.3054 85.0668 34.2472 85.5905 34.1309C86.1287 34.0145 86.6306 33.8327 87.096 33.5854C87.5615 33.3236 87.9833 32.9963 88.3615 32.6035C88.7543 32.1962 89.0816 31.7162 89.3434 31.1635H89.387L89.5834 33.9999H90.6526Z" fill="black"/>
<path d="M97.3525 34.7998C98.181 34.7998 98.8525 34.1282 98.8525 33.2998C98.8525 32.4714 98.181 31.7998 97.3525 31.7998C96.5241 31.7998 95.8525 32.4714 95.8525 33.2998C95.8525 34.1282 96.5241 34.7998 97.3525 34.7998Z" fill="#EE4C2C"/>
<path d="M129.853 3L123.553 12.6L123.153 12.2C122.153 11.2 121.053 10.5 119.753 9.89999L118.953 9.59999L125.253 0L129.853 3Z" fill="#EE4C2C"/>
<path d="M103.352 23.6999L105.952 23.2999C105.252 18.8999 108.252 14.7999 112.552 14.0999C116.952 13.3999 121.052 16.3999 121.752 20.6999C122.452 25.0999 119.452 29.1999 115.152 29.8999L108.152 30.9999L105.352 31.3999L103.152 34.3999L115.652 32.4999C121.452 31.5999 125.452 26.1999 124.552 20.3999V20.2999C123.652 14.4999 118.252 10.4999 112.452 11.3999H112.352C106.352 12.3999 102.352 17.8999 103.352 23.6999Z" fill="#EE4C2C"/>
<path d="M105.952 23.3221L103.386 23.7363L104.15 28.4749L106.717 28.0607L105.952 23.3221Z" fill="#EE4C2C"/>
</svg>
