<svg xmlns="http://www.w3.org/2000/svg" viewBox="0.0 0.0 24.0 24.0" height="200px" width="200px"><path fill="none" stroke="black" stroke-width=".3" stroke-opacity="1.0"  d="M9.331999778747559 1.25 L9.331999778747559 1.25 C9.774789810180664 1.8597497940063477 10.420870780944824 2.1518821716308594 11.066963195800781 2.4439477920532227 C11.713056564331055 2.736013412475586 12.359161376953125 3.0280141830444336 12.802000045776367 3.6374998092651367 L12.802000045776367 3.6374998092651367 C13.216081619262695 4.395577907562256 12.83358097076416 4.870429992675781 12.22606086730957 5.175211429595947 C11.61854076385498 5.4799933433532715 10.78600025177002 5.614704132080078 10.300000190734863 5.692500114440918 L10.300000190734863 5.692500114440918 C10.435256958007812 4.897643566131592 10.569343566894531 4.41878604888916 10.281000137329102 3.6735000610351562 L10.281000137329102 3.6735000610351562 C9.656917572021484 2.770963668823242 9.255645751953125 2.341676712036133 9.331999778747559 1.25 L9.331999778747559 1.25"></path>
<path fill="none" stroke="black" stroke-width=".3" stroke-opacity="1.0"  d="M9.331999778747559 1.25 L9.331999778747559 1.25 C9.56299114227295 1.966278076171875 9.985245704650879 2.6036911010742188 10.546366691589355 3.1140546798706055 C10.960609436035156 3.4908266067504883 11.538208961486816 3.6853723526000977 11.892499923706055 4.11899995803833 C12.01726245880127 4.271700859069824 11.8638334274292 4.512333393096924 11.849499702453613 4.709000110626221 L11.849499702453613 4.709000110626221 C11.277756690979004 4.637207984924316 10.627585411071777 4.520573139190674 10.230500221252441 4.102999687194824 L10.230500221252441 4.102999687194824 C9.646103858947754 3.150897979736328 9.250831604003906 2.3864660263061523 9.331999778747559 1.25 L9.331999778747559 1.25"></path>
<path fill="none" stroke="black" stroke-width=".3" stroke-opacity="1.0"  d="M4.854499816894531 1.2939996719360352 L7.675749778747559 2.8640003204345703 L10.496999740600586 4.434000015258789 L9.284500122070312 5.383500099182129 L7.069499969482422 3.338749885559082 L4.854499816894531 1.2939996719360352"></path>
<path fill="none" stroke="black" stroke-width=".3" stroke-opacity="1.0"  d="M11.134500503540039 2.3050003051757812 L11.134500503540039 2.3050003051757812 C12.262310028076172 2.102254867553711 13.360300064086914 2.125293731689453 14.414048194885254 2.331634521484375 C15.467796325683594 2.537975311279297 16.4773006439209 2.9276180267333984 17.42814064025879 3.4580793380737305 C18.378978729248047 3.9885406494140625 19.27115249633789 4.659820556640625 20.090234756469727 5.429435729980469 C20.763486862182617 6.062027931213379 21.61468505859375 6.893954277038574 21.891000747680664 7.8125 C22.08984375 8.473502159118652 22.074453353881836 9.151878356933594 21.95667266845703 9.821440696716309 C21.838891983032227 10.491003036499023 21.61872100830078 11.151752471923828 21.408000946044922 11.77750015258789 L21.408000946044922 11.77750015258789 C20.925098419189453 11.026392936706543 20.562158584594727 10.246456146240234 20.169288635253906 9.485513687133789 C19.77642059326172 8.72457218170166 19.353622436523438 7.982625961303711 18.751001358032227 7.30750036239624 L18.751001358032227 7.30750036239624 C19.069421768188477 7.921031951904297 19.255462646484375 8.4981107711792 19.36644172668457 9.092392921447754 C19.477418899536133 9.686675071716309 19.513334274291992 10.298158645629883 19.53150177001953 10.980500221252441 L19.53150177001953 10.980500221252441 C18.647069931030273 10.135513305664062 18.120210647583008 9.040584564208984 17.613140106201172 7.921492576599121 C17.106067657470703 6.802400588989258 16.618783950805664 5.659144401550293 15.813501358032227 4.71750020980835 L15.813501358032227 4.71750020980835 C16.43242073059082 5.9100341796875 16.558780670166016 6.953279972076416 16.59000015258789 8.283000946044922 L16.59000015258789 8.283000946044922 C16.007984161376953 7.515202045440674 15.504498481750488 6.721415996551514 14.985647201538086 5.96558141708374 C14.466794967651367 5.209746837615967 13.932578086853027 4.49186372756958 13.289101600646973 3.875870704650879 C12.645625114440918 3.259878158569336 11.892889022827148 2.7457752227783203 10.937000274658203 2.3975000381469727 L10.937000274658203 2.3975000381469727 C11.002833366394043 2.366666793823242 11.0686674118042 2.3358335494995117 11.134500503540039 2.3050003051757812 L11.134500503540039 2.3050003051757812"></path>
<path fill="none" stroke="black" stroke-width=".3" stroke-opacity="1.0"  d="M12.095000267028809 2.9300003051757812 L12.095000267028809 2.9300003051757812 C13.040525436401367 2.865574836730957 13.965033531188965 2.980060577392578 14.860048294067383 3.227682113647461 C15.7550630569458 3.4753036499023438 16.620582580566406 3.8560619354248047 17.448135375976562 4.324178695678711 C18.275686264038086 4.792295932769775 19.06526756286621 5.347773551940918 19.80840301513672 5.944835186004639 C20.55154037475586 6.541897296905518 21.24822998046875 7.180543899536133 21.889999389648438 7.815000057220459 L21.889999389648438 7.815000057220459 C21.98303985595703 8.904411315917969 21.92499542236328 10.112150192260742 21.62495231628418 11.234946250915527 C21.324909210205078 12.357743263244629 20.782869338989258 13.395597457885742 19.907920837402344 14.14523983001709 C18.981590270996094 14.938905715942383 18.629268646240234 14.913631439208984 17.459999084472656 15.28499984741211 L17.459999084472656 15.28499984741211 C16.870946884155273 14.57209587097168 16.374591827392578 13.821304321289062 15.906240463256836 13.052266120910645 C15.437889099121094 12.283227920532227 14.997539520263672 11.495941162109375 14.520496368408203 10.710049629211426 C14.340539932250977 10.413585662841797 13.845282554626465 9.398128509521484 13.319999694824219 9.469999313354492 C12.682798385620117 9.557182312011719 12.295016288757324 10.408973693847656 11.894760131835938 10.798398971557617 C11.395147323608398 11.284492492675781 10.657988548278809 11.45561408996582 10.104999542236328 11.879999160766602 C9.630595207214355 12.244075775146484 9.449971199035645 12.935999870300293 8.934999465942383 13.239998817443848 C8.082891464233398 13.743016242980957 6.615726947784424 13.03902816772461 5.804999828338623 12.734997749328613 L5.804999828338623 12.734997749328613 C5.621365547180176 12.368178367614746 5.453078269958496 11.99353313446045 5.295000076293945 11.614997863769531 L5.295000076293945 11.614997863769531 C4.982722759246826 10.428342819213867 6.065224647521973 9.750953674316406 6.746280193328857 8.888837814331055 C7.341329574584961 8.135592460632324 7.894603252410889 7.334171295166016 8.345000267028809 6.484997749328613 L8.345000267028809 6.484997749328613 C8.626094818115234 5.133002281188965 9.19737720489502 4.631947994232178 10.210000038146973 3.75 L10.210000038146973 3.75 C10.753978729248047 3.24228572845459 11.393070220947266 3.0906753540039062 12.095000267028809 2.9300003051757812 L12.095000267028809 2.9300003051757812"></path>
<path fill="none" stroke="black" stroke-width=".3" stroke-opacity="1.0"  d="M9.595499992370605 3.0485000610351562 L9.595499992370605 3.0485000610351562 C9.776219367980957 3.4167728424072266 9.992088317871094 3.768810272216797 10.229999542236328 4.103000164031982 L10.231999397277832 4.1045002937316895 C9.056800842285156 4.92280912399292 8.236559867858887 5.214763164520264 8.118000030517578 6.741000175476074 L8.118000030517578 6.741000175476074 C7.725093841552734 5.868191242218018 7.700736999511719 5.175172805786133 7.97147274017334 4.585302829742432 C8.242208480834961 3.995433807373047 8.808036804199219 3.5087127685546875 9.595499992370605 3.0485000610351562 L9.595499992370605 3.0485000610351562"></path>
<path fill="none" stroke="black" stroke-width=".3" stroke-opacity="1.0"  d="M13.217001914978027 3.614500045776367 L13.217001914978027 3.614500045776367 C13.875423431396484 4.319945335388184 14.427111625671387 5.104151725769043 14.959976196289062 5.903393745422363 C15.492839813232422 6.702635765075684 16.006877899169922 7.516913414001465 16.59000015258789 8.282500267028809 L16.59000015258789 8.282500267028809 C16.587167739868164 8.161833763122559 16.584333419799805 8.041167259216309 16.581501007080078 7.9205002784729 L16.581501007080078 7.9205002784729 C16.60028839111328 8.447763442993164 16.637378692626953 8.974635124206543 16.691001892089844 9.499500274658203 L16.691001892089844 9.499500274658203 C15.889802932739258 8.626148223876953 15.401328086853027 7.596437454223633 14.923140525817871 6.564294815063477 C14.444952964782715 5.53215217590332 13.977052688598633 4.4975786209106445 13.217001914978027 3.614500045776367 L13.217001914978027 3.614500045776367"></path>
<path fill="none" stroke="black" stroke-width=".3" stroke-opacity="1.0"  d="M15.812999725341797 4.718000888824463 L15.812999725341797 4.718000888824463 C16.61851692199707 5.659502029418945 17.10592269897461 6.802633762359619 17.613059997558594 7.921637058258057 C18.120197296142578 9.040639877319336 18.647064208984375 10.135514259338379 19.5314998626709 10.980500221252441 L19.5314998626709 10.980500221252441 C19.527332305908203 10.824000358581543 19.52316665649414 10.667500495910645 19.518999099731445 10.511000633239746 L19.518999099731445 10.511000633239746 C19.533273696899414 10.968536376953125 19.559953689575195 11.425827026367188 19.597999572753906 11.882000923156738 L19.597999572753906 11.882000923156738 C18.869426727294922 11.316278457641602 18.259620666503906 10.806828498840332 17.856534957885742 9.95160961151123 C17.4315185546875 9.049861907958984 17.239803314208984 8.148612976074219 16.99475860595703 7.269224166870117 C16.749713897705078 6.389835834503174 16.451337814331055 5.5323076248168945 15.812999725341797 4.718000888824463 L15.812999725341797 4.718000888824463"></path>
<path fill="none" stroke="black" stroke-width=".3" stroke-opacity="1.0"  d="M9.992499351501465 6.4014997482299805 L9.992499351501465 6.4014997482299805 C9.999166488647461 6.637166500091553 10.174427032470703 6.9371442794799805 10.012499809265137 7.108500003814697 C9.85057258605957 7.279855728149414 9.541166305541992 7.121833324432373 9.305500030517578 7.128499984741211 L9.305500030517578 7.128499984741211"></path>
<path fill="none" stroke="black" stroke-width=".3" stroke-opacity="1.0"  d="M18.750999450683594 7.30750036239624 L18.750999450683594 7.30750036239624 C19.353527069091797 7.982675552368164 19.776321411132812 8.72463321685791 20.169212341308594 9.48556900024414 C20.562103271484375 10.246503829956055 20.925090789794922 11.026416778564453 21.408000946044922 11.77750015258789 L21.408000946044922 11.77750015258789 C21.272478103637695 12.124055862426758 21.132905960083008 12.469114303588867 20.986000061035156 12.810999870300293 L20.986000061035156 12.810999870300293 C20.469648361206055 11.918558120727539 20.239749908447266 10.962187767028809 19.974512100219727 10.01917552947998 C19.709274291992188 9.076163291931152 19.408700942993164 8.146509170532227 18.750999450683594 7.30750036239624 L18.750999450683594 7.30750036239624"></path>
<path fill="none" stroke="black" stroke-width=".3" stroke-opacity="1.0"  d="M5.215000152587891 11.219999313354492 L5.215000152587891 11.219999313354492 C6.040783405303955 11.716711044311523 5.977397441864014 11.849479675292969 5.84499979019165 12.75 L5.84499979019165 12.75 C5.831666469573975 12.744999885559082 5.818333148956299 12.739999771118164 5.804999828338623 12.734999656677246 L5.804999828338623 12.734999656677246 C5.621365547180176 12.368180274963379 5.453078269958496 11.993535041809082 5.295000076293945 11.614999771118164 L5.295000076293945 11.614999771118164 C5.261666774749756 11.488332748413086 5.228333473205566 11.361666679382324 5.195000171661377 11.234999656677246 L5.195000171661377 11.234999656677246 C5.201666831970215 11.229999542236328 5.208333492279053 11.22499942779541 5.215000152587891 11.219999313354492 L5.215000152587891 11.219999313354492"></path>
<path fill="none" stroke="black" stroke-width=".3" stroke-opacity="1.0"  d="M8.010000228881836 11.670000076293945 L8.010000228881836 11.670000076293945 C7.3694305419921875 12.475608825683594 6.772623538970947 13.294171333312988 6.234208583831787 14.134140968322754 C5.695793628692627 14.97411060333252 5.2157697677612305 15.835485458374023 4.808765888214111 16.726716995239258 C4.401761531829834 17.617950439453125 4.067777156829834 18.539039611816406 3.821439743041992 19.498435974121094 C3.5751028060913086 20.45783233642578 3.416414260864258 21.455535888671875 3.359999656677246 22.5 L2.0 22.5 C2.0718765258789062 21.375125885009766 2.2692337036132812 20.3150577545166 2.577731132507324 19.304292678833008 C2.886227607727051 18.293527603149414 3.3058643341064453 17.33206558227539 3.8223018646240234 16.40440559387207 C4.338737964630127 15.476744651794434 4.951974391937256 14.5828857421875 5.647670745849609 13.707324981689453 C6.1198554039001465 13.113062858581543 7.210833549499512 11.847590446472168 8.010000228881836 11.670000076293945 L8.010000228881836 11.670000076293945"></path>
<path fill="none" stroke="black" stroke-width=".3" stroke-opacity="1.0"  d="M8.010000228881836 11.670000076293945 L8.010000228881836 11.670000076293945 C8.15472412109375 11.714153289794922 8.317004203796387 11.759712219238281 8.414999961853027 11.875 L8.414999961853027 11.875 C7.845092296600342 12.666217803955078 7.3507585525512695 13.483529090881348 6.927567005157471 14.325027465820312 C6.504375457763672 15.166525840759277 6.152325630187988 16.032209396362305 5.866985321044922 16.9201717376709 C5.5816450119018555 17.80813217163086 5.363014221191406 18.718372344970703 5.206660747528076 19.64897918701172 C5.050307273864746 20.579586029052734 4.956231117248535 21.530563354492188 4.920000076293945 22.5 L3.255000114440918 22.5 C3.3104782104492188 21.441490173339844 3.464779853820801 20.4210205078125 3.7116241455078125 19.43341636657715 C3.9584693908691406 18.445812225341797 4.297857284545898 17.491069793701172 4.723508834838867 16.564010620117188 C5.149159908294678 15.63695240020752 5.661074638366699 14.737577438354492 6.252971649169922 13.86070728302002 C6.574909687042236 13.383769989013672 7.434660911560059 11.7978515625 8.010000228881836 11.670000076293945 L8.010000228881836 11.670000076293945"></path>
<path fill="none" stroke="black" stroke-width=".3" stroke-opacity="1.0"  d="M8.305000305175781 11.75999927520752 L8.305000305175781 11.75999927520752 C8.722480773925781 12.010497093200684 8.309746742248535 12.5870361328125 8.18375015258789 12.828125 C7.811840057373047 13.53976058959961 7.523191452026367 14.29237174987793 7.291399955749512 15.060480117797852 C7.0489678382873535 15.863848686218262 6.871424674987793 16.680326461791992 6.741121768951416 17.504552841186523 C6.610818862915039 18.328781127929688 6.5277557373046875 19.160755157470703 6.474285125732422 19.9951171875 C6.420814514160156 20.829479217529297 6.39693546295166 21.66622543334961 6.385000228881836 22.5 L4.755000114440918 22.5 C4.791806221008301 21.518234252929688 4.888113498687744 20.55640983581543 5.047863483428955 19.6158390045166 C5.207613468170166 18.67526626586914 5.430806636810303 17.755949020385742 5.721384525299072 16.859195709228516 C6.011961936950684 15.962444305419922 6.369924545288086 15.08825969696045 6.79921293258667 14.237956047058105 C7.228501796722412 13.387651443481445 7.729116916656494 12.561227798461914 8.305000305175781 11.75999927520752 L8.305000305175781 11.75999927520752"></path>
<path fill="none" stroke="black" stroke-width=".3" stroke-opacity="1.0"  d="M8.47499942779541 12.019999504089355 L8.47499942779541 12.019999504089355 C8.501413345336914 12.68033218383789 8.363285064697266 13.348946571350098 8.197225570678711 14.014058113098145 C8.03116512298584 14.679168701171875 7.8371734619140625 15.340776443481445 7.75186014175415 15.987093925476074 C7.60951042175293 17.06550407409668 7.546140193939209 18.15108299255371 7.51855993270874 19.23838233947754 C7.490979194641113 20.32568359375 7.499189376831055 21.414705276489258 7.5 22.5 L6.25 22.5 C6.267035484313965 21.292205810546875 6.313631057739258 20.079978942871094 6.43695592880249 18.8822021484375 C6.560280799865723 17.684425354003906 6.760334014892578 16.501100540161133 7.084285259246826 15.351106643676758 C7.408236503601074 14.201111793518066 7.856084823608398 13.084449768066406 8.47499942779541 12.019999504089355 L8.47499942779541 12.019999504089355"></path></svg>