<svg width="108" height="108" viewBox="0 0 108 108" fill="none" xmlns="http://www.w3.org/2000/svg">

<path d="M43.5 63.6984C48.1667 58.0318 58.1 44.5261 62.5 32.5261C64.3751 27.4121 71.1934 20.4031 75.5 19C78.2126 18.1162 80.4624 18.71 82.5 19.7C84.8184 20.8265 86.8621 22.4661 89 23.0261C84.1667 22.6927 73.7 25.9261 70.5 41.5261C67.3 57.1261 57.3333 63.242 51 65.4087M36 62.0261C35.5 61.5261 25 41.0261 23.5 35.5261C23.1667 34.8594 22 33.5261 20 33.5261C22.5 30.5261 26.9897 29.626 44.9897 62.0261M23.5 66.0261C25 66.0261 29.2 66.6261 34 69.0261C38.8 71.4261 47.3333 71.0261 51 70.5261L58.5 74.5261C60.6667 74.0261 65.1 73.0261 65.5 73.0261C65.9 73.0261 70.3333 72.3594 72.5 72.0261C70 70.0261 63.9 66.0261 59.5 66.0261C55.1 66.0261 50.3333 65.3594 48.5 65.0261C39.8024 62.3499 32.5 60.5 30 63.5C26.7448 64.1619 24 63.5 23.5 66.0261Z" stroke="black" fill="none"/>
</svg>
