<svg width="108" height="108" viewBox="0 0 108 108" fill="none" xmlns="http://www.w3.org/2000/svg">

<path d="M33.1481 54.5884C32.493 54.8725 31.9887 55.1943 31.6333 55.5138C33.0972 55.7849 37.0853 57.1421 41.3267 60.4026C45.568 63.663 53.9699 64.8063 57.6406 64.9704L64.2216 70.3141C66.4284 70.2071 70.9397 70.0112 71.3301 70.0835C71.7205 70.1558 76.1702 70.2922 78.3463 70.3514C76.2757 67.9055 71.061 62.8147 66.7669 62.0196C63.3712 61.3908 60.188 60.255 58 59.5C57.4211 59.3002 46.8614 55.6388 46.5 55.5C43.5 54 39.0952 54 37.5952 54C35.0952 54 34.0251 54.2081 33.1481 54.5884ZM33.1481 54.5884C31.6333 53.4833 21.1481 49.4833 13.6481 49.4833C14.0596 47.0674 38.5 47.5 49.5 56.5M50 56.5C62.2901 53.3306 84.5441 43.0441 90.1481 27.9833C89.6481 31.65 88.0481 40.0833 85.6481 44.4833C87.6481 43.8166 92.2481 41.3833 94.6481 36.9833C92.8166 44.6486 83.2655 59.7988 58.2807 59.504" stroke="black" fill="none"/>
</svg>
