<svg width="256" height="256" viewBox="0 0 256 256" fill="none" xmlns="http://www.w3.org/2000/svg">

<path d="M40 123C40 105.879 53.8792 92 71 92C88.1208 92 102 105.879 102 123C102 140.121 88.1208 154 71 154C53.8792 154 40 140.121 40 123Z" fill="none" stroke="#62C613" stroke-width="3"/>
<path d="M123 159C123 141.879 136.879 128 154 128C171.121 128 185 141.879 185 159C185 176.121 171.121 190 154 190C136.879 190 123 176.121 123 159Z" fill="none" stroke="#62C613" stroke-width="3"/>
<path d="M71 156C71 138.879 84.8792 125 102 125C119.121 125 133 138.879 133 156C133 173.121 119.121 187 102 187C84.8792 187 71 173.121 71 156Z" fill="none" stroke="#62C613" stroke-width="3"/>
<path d="M146 129C146 111.879 159.879 98 177 98C194.121 98 208 111.879 208 129C208 146.121 194.121 160 177 160C159.879 160 146 146.121 146 129Z" fill="none" stroke="#62C613" stroke-width="3"/>
<path d="M90 126C90 108.879 103.879 95 121 95C138.121 95 152 108.879 152 126C152 143.121 138.121 157 121 157C103.879 157 90 143.121 90 126Z" fill="none" stroke="#62C613" stroke-width="3"/>

</svg>
