<svg width="108" height="108" viewBox="0 0 108 108" fill="none" xmlns="http://www.w3.org/2000/svg">

<path d="M53.6728 80.1424C44.1728 79.1424 37.3394 69.3091 35.6728 64.1424C34.3394 64.6424 31.2728 64.6424 29.6728 60.6424C27.6728 55.6424 30.6728 52.6424 31.6728 52.1424C33.3394 48.9758 37.0728 42.6424 38.6728 42.6424C40.6728 42.6424 51.6728 53.1424 66.1728 50.6424C68.1184 50.2533 71.9416 49.9248 74.6728 50.9294C75.451 51.2157 76.1406 51.6102 76.6728 52.1424C79.1728 54.6424 79.0061 57.2134 79.1728 59.1424C78.7728 64.3424 74.6728 65.6424 72.6728 65.6424C67.4728 77.6424 57.8394 80.3091 53.6728 80.1424Z" stroke="black" fill="none"/>
<path d="M31.6728 52.1424C29.8394 43.8091 29.6728 27.2424 43.6728 27.6424C44.1728 27.6424 48.6728 15.6424 67.1728 26.6424C70.0061 28.3091 76.3728 31.5424 79.1728 31.1424C80.1728 36.1424 80.9728 47.3424 76.1728 52.1424M43.6728 75.1424C43.6728 75.1424 43.6728 85.3424 43.6728 86.1424" stroke="black" fill="none"/>
<path d="M64.6728 76.1425C64.2728 76.5425 64.5061 82.6425 64.6728 85.6425" stroke="black" fill="none"/>
<circle cx="61" cy="57" r="1.5" stroke="black" fill="none"/>
<circle cx="47" cy="57" r="1.5" stroke="black" fill="none"/>
</svg>
