<svg width="108" height="108" viewBox="0 0 108 108" fill="none" xmlns="http://www.w3.org/2000/svg">

<path d="M55.6786 35C55.6786 35 33.5 36 29.3214 36.4633C25.1429 36.9266 22 38.5119 22 40.8532C22 43.7798 25.6429 42.6329 29.3214 42.3165C33 42 41.7057 42.3165 46.7539 42.3165M41.0357 59.876C38 66.5 29 79.5 26.3929 81.8254C23.7857 84.1508 26.1 88.2639 30.7857 84.752C38.5 80 41.1428 75 47.8446 62.8026M48.3571 62.8026C46.8929 69.1435 43.3786 82.996 41.0357 87.6786C40.5476 89.1419 39.5714 92.5635 41.0357 93.5317C42.5 94.5 43.9643 96.4583 48.3571 87.6786C50.6413 83.1133 54.5091 73.8004 57.6961 65.5M63 49.6329C62 56.5 61 58 57.745 65.3725M46.8929 42.3165C46 48 44.5 54 41.1428 59.7629" stroke="black" fill="none"/>
<path d="M63 50C66.8554 51.4755 73.9277 53.8862 76.2409 52.7058C78.5542 51.5255 81.6386 50.6716 84 47.5C86.3614 44.3284 87.5 43.5 86.3614 42.3774C85.3318 41.3624 84.4458 41.5245 83 43C81.8434 44.1804 77 48 74.5 47.5C70.1627 45.5327 67 43 64 40C61 37 59.5 36.5 56 35" stroke="black" fill="none"/>
<circle cx="60" cy="25" r="8.5" stroke="black" fill="none"/>
<circle cx="70.5" cy="87.5" r="7" stroke="black" fill="none"/>
</svg>
