<svg width="108" height="108" viewBox="0 0 108 108" fill="none" xmlns="http://www.w3.org/2000/svg">

<path d="M44.1739 33.9803C37.0952 36.5 35.5952 39.4 33.5952 43C31.5952 46.6 30.5365 50 31.5952 54C32.6539 58.0001 34.5076 62.632 36.5952 64.5C38.1972 65.9335 40.5952 64 39.7957 60.7513C38.9963 57.5026 34.6651 49.8574 41.0818 45.3729M49 60.5C49 60.5 65 56 72.5 56C80 56 82 57.5 86 55C87.0764 54.3273 87.5 50.2447 84.5 49.4965C81.5 48.7482 76.5 48 69.5 48.5C66.0089 48.7494 63.5 49.4635 60.1374 49.4965M57.5013 42.4069C58.5 44 59.5 47 60.0702 49.4635M41.4662 45.0883C44 49 46 54.5 46.9995 61.4373M56.5952 58.5L54.5952 60.7513C53.0952 64.2513 54.211 81.1697 53.7709 88.7782C52.0946 94.3888 49.5578 91.2904 48.4989 89.0399C47.8671 81.6546 47.008 64.9675 47.0001 61.5468" stroke="black" fill="none"/>
<path d="M57.0952 42C61.0718 40.8918 69.3933 37.8061 71.2355 35.9756C73.2238 34 74.5845 30.9541 74.5952 27C74.6059 23.0459 74.8068 21.8774 73.2238 21.6527C71.7923 21.4495 70.3792 22.9539 70.0952 25C69.868 26.6369 69.0455 31.7418 66.7387 32.8275C62.0821 33.8272 56.2492 33.0117 55.0952 32.8275C53.0553 32.5019 49.0952 32 44.4323 33.7891" stroke="black" fill="none"/>
<circle cx="41.6969" cy="23.3719" r="8.5" transform="rotate(-36.5142 41.6969 23.3719)" stroke="black" fill="none"/>
<circle cx="91.2371" cy="33.3266" r="7" transform="rotate(-36.5142 91.2371 33.3266)" stroke="black" fill="none"/>
</svg>
