<svg width="108" height="108" viewBox="0 0 108 108" fill="none" xmlns="http://www.w3.org/2000/svg">

<path d="M94 0.5L53.5 36.5C52.8333 39.3333 52.9 44.9 58.5 44.5C58.6667 47.3333 60.2 52.7 65 51.5C64.8333 54 65.7 58.6 70.5 57L107 26M53 36.5C46.8333 47 35 69.5 35 69.5C35 69.5 59 61.1667 69.5 57.5M41.5 57.5C42 60 43.9 65.4 47.5 65M107.5 1.5L59 44" stroke="black" fill="none"/>
<path d="M35 70.3494C35 70.3494 37 73.8494 41 78.8494C45 83.8494 67.389 99.8048 72.5 78.8494C77.5 58.3493 99 67.8493 92 99.3494" stroke="black" fill="none"/>
<path d="M66 51C67.1855 50.2 93.8273 27.3333 107 16" stroke="black" fill="none"/>
</svg>
