<svg width="108" height="123" viewBox="0 0 108 123" fill="none" xmlns="http://www.w3.org/2000/svg">

<path d="M28.5 14L23.6009 28.6227C24.3873 31.4252 27.1374 36.2656 31.8458 33.2076C33.3617 35.6071 37.2989 39.5632 40.9202 36.1919C41.9831 38.4608 44.966 42.0682 48.3939 38.3467L57.5 12.5M23.5 29C23.1793 41.1727 23.3641 66.4538 23.3641 66.4538C23.3641 66.4538 40.0821 47.7867 47.5 39.5M23.2513 52.807C24.8978 54.7535 29.172 58.5615 32.1298 56.4706M38.5 12.5L32.0417 32.5282" stroke="black" fill="none"/>
<path d="M41.5537 35.2707C42.2046 33.9972 43.9497 29.2898 50 13" stroke="black" fill="none"/>
<path d="M23 67.5C27.5 75.5 34.0126 85.522 34.0377 85.565C34.3297 86.0644 36.3171 89.3965 40 94.0001C44 99.0001 66.389 114.955 71.5 94.0001C76.5 73.5 98 83 91 114.5" stroke="black" fill="none"/>
</svg>
