<svg width="108" height="108" viewBox="0 0 108 108" fill="none" xmlns="http://www.w3.org/2000/svg">

<path d="M0.5 68C4.66667 64.8333 14.6477 63.9337 24 68C35.5 73 42.5 71.5 52 68C61 63.5 71.5 64.5 80.5 69C90.7176 74.1088 98.6667 71 107 66.5" stroke="black" fill="none"/>
<path d="M56.1582 24.4797C52.6775 22.6741 54.2244 19.6647 55.1913 18.6115C55.1061 18.2931 54.9974 17.7087 54.9974 17.7087C54.2245 14.0974 59.2185 12.9351 61.9593 13.646C68.9212 9.58339 72.5947 14.0974 73.0781 15.903C76.5588 17.7086 74.5284 20.2666 73.0781 21.3199C73.0781 24.57 68.2439 24.4797 65.8267 24.0283C64.2798 27.2784 58.5753 25.8339 56.1582 24.4797Z" stroke="black" fill="none"/>
<path d="M59.4529 65.3079L59.4918 59.1233L78.281 60.3328C77.5438 61.8643 75.2918 65.1406 72.182 65.9942" stroke="black" fill="none"/>
<path d="M68.2221 59.2995L67.8544 40.6216L61.5792 55.0133L67.4037 54.4435" stroke="black" fill="none"/>
</svg>
