<svg width="109" height="108" viewBox="0 0 109 108" fill="none" xmlns="http://www.w3.org/2000/svg">

<path d="M1 66.4163C12.5 71.4164 23 72 33 70.5C39.5 68.5 43 66 44.5 62.5C46 58.5 47 54.5 38 49C41.5 49 48.4775 50.222 53 55.5C57.8941 61.2117 58 65 61.5 68C70.1735 75.4343 77.1667 72.5 85.5 68C93 65 100.4 65.7 108 70.5" stroke="black" fill="none"/>
<path d="M53.1859 26.8281C48.0477 24.2487 50.3313 19.9496 51.7586 18.4449C51.6328 17.9901 51.4724 17.1552 51.4724 17.1552C50.3313 11.9963 57.7036 10.3359 61.7494 11.3515C72.0265 5.54771 77.4493 11.9963 78.163 14.5758C83.3011 17.1552 80.3039 20.8094 78.163 22.3141C78.163 26.9571 71.0266 26.8281 67.4585 26.1833C65.1749 30.8263 56.754 28.7627 53.1859 26.8281Z" stroke="black" fill="none"/>
<path d="M75.7025 72.4355L72.8609 66.9423L90.0574 59.2754C90.1169 60.9741 89.6469 64.9218 87.2907 67.1237" stroke="black" fill="none"/>
<path d="M80.6718 63.0383L71.6604 46.6739L72.7976 62.3329L77.6891 59.1199" stroke="black" fill="none"/>
</svg>
